<svg xmlns="http://www.w3.org/2000/svg" viewBox="0 0 253 201.19"><defs><style>.cls-1,.cls-12{isolation:isolate;}.cls-2,.cls-6,.cls-7,.cls-8,.cls-9{fill:#ba864d;}.cls-3{fill:#905a2a;}.cls-4,.cls-5{fill:#d9c7a8;}.cls-5,.cls-6,.cls-7{mix-blend-mode:multiply;}.cls-6{opacity:0.5;}.cls-7{opacity:0.7;}.cls-8{opacity:0.6;}.cls-8,.cls-9{mix-blend-mode:screen;}.cls-10{fill:#321402;}.cls-11{fill:#fbdda6;}.cls-12{fill:#473720;opacity:0.1;}</style></defs><g class="cls-1"><g id="Layer_2" data-name="Layer 2"><g id="_Layer_" data-name="&lt;Layer&gt;"><path class="cls-2" d="M81.31,90.16l7.79-.11s.08,11.22.08,25-3.16,63-2.93,75.42a7.41,7.41,0,0,1-5.09,8.5c-3.56,1.35-20.59,5.39-26.61-4.41a33.71,33.71,0,0,1-2.08-9c-.7-5.88-.23-92.69,0-95.63S81.31,90.16,81.31,90.16Z"/><path class="cls-3" d="M51.83,151.28c0-26.25.22-59.45.37-61.3a.89.89,0,0,1,.51-.65c3.59-2,27.62.53,28.64.64l7.74-.11a.39.39,0,0,1,.2,0,.19.19,0,0,1,.08.14c0,.11.08,11.38.08,25,0,6.55-.7,20.73-1.43,35.74-.8,16.29-1.62,33.14-1.5,39.68a7.59,7.59,0,0,1-5.23,8.67c-2,.75-10.9,3.16-18.41,1.32a13.34,13.34,0,0,1-8.58-5.83,33.66,33.66,0,0,1-2.1-9C51.9,183.07,51.83,165.54,51.83,151.28Zm37-61-7.51.1c-.3,0-24.87-2.67-28.27-.72a.5.5,0,0,0-.31.38c-.14,1.84-.37,35-.37,61.27,0,14.25.06,31.77.37,34.33a33.48,33.48,0,0,0,2.07,8.94,12.78,12.78,0,0,0,8.25,5.59c7.32,1.8,16-.56,18-1.29a7.24,7.24,0,0,0,5-8.29c0-.47,0-1,0-1.48,0-7.34.77-23.05,1.52-38.25.73-15,1.43-29.19,1.43-35.73C88.91,102.41,88.84,91.8,88.83,90.25Z"/><path class="cls-4" d="M82.25,96c4.52-1.17,8.08-3.82,6.53-7.36-2.31-5.26-10.32-6.3-17-6.54-6.56-.23-16,.47-18.69,5.63-3.06,6,6.29,8.8,12.66,9.46A49,49,0,0,0,82.25,96Z"/><path class="cls-3" d="M52.18,90h0a5.18,5.18,0,0,1,.61-2.31c2.81-5.5,13.08-6,19-5.76C78,82.1,86.62,83,89,88.56a4.27,4.27,0,0,1,.38,1.71c0,2.54-2.65,4.74-7.07,5.88a49.82,49.82,0,0,1-16.68,1.2,30.41,30.41,0,0,1-8.8-2.17C53.8,93.81,52.18,92,52.18,90Zm36.7.32a4.11,4.11,0,0,0-.36-1.6c-2.32-5.29-10.7-6.19-16.8-6.41C66,82.06,56,82.5,53.3,87.77A4.88,4.88,0,0,0,52.72,90c0,4.47,8.19,6.52,13,7a49.28,49.28,0,0,0,16.41-1.19C86.36,94.7,88.88,92.64,88.88,90.27Z"/><path class="cls-5" d="M82.25,96a16.39,16.39,0,0,0,2.56-.88C77.35,97.17,65.25,96.68,59.12,94c-4.44-1.93-6-5.79-2.3-9.29a8.08,8.08,0,0,1,1.44-1.08,9.08,9.08,0,0,0-5.21,4.06c-3.06,6,6.29,8.8,12.66,9.46A49,49,0,0,0,82.25,96Z"/><path class="cls-6" d="M77.62,94.91c3.84-.54,8.1-2.13,8.63-5.15.31-1.77-.5-3-2.21-3.91-3.91-3-12.1-3.26-17.12-3-3.8.2-9.32.83-11.72,3.12a3.75,3.75,0,0,0,.43,5.88C60.78,96,70.64,95.91,77.62,94.91Zm-21.29-9c1.9-1.71,7.34-2.2,10.15-2.45,4.65-.41,11.87-.38,16.18,1.82a.15.15,0,0,0,.08.08C86,87,86.39,89.55,84.19,91.73s-5.58,2.68-9,3c-6.08.64-13.15.23-18.24-2.31C53.54,90.75,54.21,87.78,56.33,85.89Z"/><path class="cls-6" d="M75.85,92.94c2-.21,6.7-.61,7.51-2.35.62-1.33,1-2.11.38-2.86,0,0,0,0,0,0l-.12-.1a2.72,2.72,0,0,0-.35-.3c-3.73-3.08-11.11-3.4-16.34-3.06-2.89.19-7,.35-9.13,1.87-1.85,1.32-1.74,3.4.11,4.67C62.35,93.81,70.21,93.51,75.85,92.94Zm-15.5-1.27c-4.59-1.29-3.72-4.93,0-6a34.83,34.83,0,0,1,7-1c4.49-.34,10.89-.13,14.73,2-.1,0-.1.12.09.24,1.74,1,1.15,3-.42,4s-4.3,1.34-6.43,1.63A37.87,37.87,0,0,1,60.35,91.67Z"/><path class="cls-6" d="M73.6,90.72c2.8-.33,5.49-.75,7.63-2.11,1.12-.71.55-1.19-.43-1.56-.15-.06-.22,0-.22,0C77.22,85.16,72,85.42,68,85.41c-2.48,0-11,.79-7.52,3.57,1.23,1,3.79,1.36,5.48,1.67A26.65,26.65,0,0,0,73.6,90.72Zm-5.23-.15c-1.28,0-9.26-1-7.59-3.15,1.21-1.55,6.76-1.49,8.84-1.49,3.65,0,8.42-.29,11.42,1.53.59.77-2.88,2-3.4,2.13-1.46.37-3,.58-4.48.81A28.36,28.36,0,0,1,68.37,90.57Z"/><path class="cls-6" d="M79,88c.06,0,0-.07,0-.11a1.54,1.54,0,0,0-.37-.35l.54.21c.13.06.15,0,.05-.08-2.19-1.14-4.62-1.28-7.28-1.28-1.57,0-7.25-.07-7.87,1.31,0,.07.08.15.13.19,1.25.95,3.63.8,5.31.91C72.52,89,76.33,89.06,79,88Zm-1.77-.87-.6,0c-.85-.07-2.2-.24-3.54-.31A18.14,18.14,0,0,1,77.25,87.11Zm-8.82,1.36c-1-.07-1.87-.19-2.81-.32l-.06-.65a9.75,9.75,0,0,1,1.62-.25l2.87-.32a2.77,2.77,0,0,0-1,.43s0,.07,0,.09c.66,1,4.66.94,5.65.3.12-.08-.26-.3-.39-.23-1,.58-3.28.18-4.38.1.26-.5.89-.65,1.9-.43.87-.07,1.79,0,2.66,0,.31,0,4.9.29,3.16.83a17.71,17.71,0,0,1-5,.57C71.29,88.58,69.85,88.56,68.43,88.47Z"/><path class="cls-3" d="M63.27,188.68c.12-1.72-.3-3.42-.31-5.14s.07-3.59.11-5.39c.08-3.91.38-7.81.73-11.71a124.72,124.72,0,0,0-.18-22.78c-.34-3.63-.57-7.28-1-10.91-.21-1.73.15-3.4.11-5.13a42.37,42.37,0,0,1,0-5.52c.38-3.83.4-7.66.56-11.49.08-1.91.15-3.81.14-5.72a12.64,12.64,0,0,0-.2-1.93c-.15-1-.72-2.66.07-3.6,0,0-.18-.13-.21-.09-1.14,1.18-.46,2.69-.38,4a38.71,38.71,0,0,1-.33,5.89c-.35,3.82-.46,7.65-.85,11.47a84.74,84.74,0,0,0,.94,21.08,100.15,100.15,0,0,1,.76,23.39c-.33,3.92-.7,7.84-.79,11.77a101.72,101.72,0,0,0,.46,11.7C62.88,188.62,63.26,188.76,63.27,188.68Z"/><path class="cls-3" d="M57,170.47c1.39-.5,1.63-2.15,1.91-2.95a16.12,16.12,0,0,0,.59-5.1c.06-2.82.65-5.57.47-8.4,0-.45.13-2.05-1-2.2-.9-.11-1.53,4.92-1.54,5.32,0,.09.4.22.4.14a13.22,13.22,0,0,1,.94-5.15c.2-.45.87.75.86.71a4.52,4.52,0,0,1,.11,1.1,18.28,18.28,0,0,1-.15,2.86c-.11,1-.53,1.92-.67,2.9-.18,1.17-.09,2.37-.17,3.55a19.24,19.24,0,0,1-.54,3.51,4.89,4.89,0,0,1-1.58,2.9,10.82,10.82,0,0,1,0-1.67,31.6,31.6,0,0,0-.48-3.34,40.2,40.2,0,0,1-.53-7.33,21.71,21.71,0,0,1,1.54-7c.73-1.92.55-4.3,2.32-6,1-.93,1.09.81,1.16,1.15a32.57,32.57,0,0,1,.75,4.34,23.29,23.29,0,0,1-.09,3c0,1.11.31,2.2.27,3.31-.07,2.36-.28,4.74-.42,7.1s-1.11,4.43-1.59,6.65c0,0,.26.16.28.09a40,40,0,0,0,2.64-14.45c-.06-2.17,0-4.38-.29-6.55a28.42,28.42,0,0,0-.89-3.87,2.24,2.24,0,0,0-1.08-1.45c-.11-.05-.37-.18-.53-.1a3.27,3.27,0,0,0-1.83,2.12c-.41,1.19-.69,2.4-1.08,3.59a37.29,37.29,0,0,0-2,7.82,35.39,35.39,0,0,0,.28,7.34,37.82,37.82,0,0,1,.47,4.48,1.48,1.48,0,0,0,.46,1.37A1.23,1.23,0,0,0,57,170.47Z"/><path class="cls-3" d="M57.31,134.73a83.1,83.1,0,0,0,1.79-9.42,90.36,90.36,0,0,0,.24-9.31c0-3,.48-5.88.19-8.85-.32-3.33-1.78-6.48-.63-9.8,0,0-.23-.15-.26-.09-1.34,2.93-.45,5.6-.1,8.58a30.6,30.6,0,0,1-.32,9.78c-.63,3,0,6.22-.31,9.29a93.51,93.51,0,0,0-.93,9.71C57,134.68,57.29,134.81,57.31,134.73Z"/><path class="cls-3" d="M54.58,146.9c.17-2.79-.14-5.57,0-8.35A29.91,29.91,0,0,1,55.69,131s-.18-.12-.2-.07a26.09,26.09,0,0,0-1.33,15.89C54.18,146.84,54.58,147,54.58,146.9Z"/><path class="cls-3" d="M59.93,193a65.73,65.73,0,0,0-.55-9.8,28.62,28.62,0,0,1-.43-5.45c.07-.78.09-1.56.17-2.34.05-.56-.19-1.31.14-1.83,0,0-.24-.16-.29-.11-.92.94-.6,2.49-.75,3.54a24.6,24.6,0,0,0,.12,4.85c.23,3.65.14,7.34,1,11C59.37,192.91,59.92,193.11,59.93,193Z"/><path class="cls-3" d="M82.06,154.52c0-9.49-.87-19,1.1-28.45,1-4.69.83-9.45.78-14.17,0-2.26,0-4.53,0-6.79,0-1.19-.15-2.35-.25-3.53-.06-.69.1-1.36-.49-2-.05-.07-.48-.19-.37,0,.65.82.1,2,.21,2.82a22,22,0,0,1-.12,3.44c-.11,2.27-.19,4.53-.23,6.8a71.25,71.25,0,0,1-1.24,14c-.91,4.17-1.66,8.63-.9,12.82a103.88,103.88,0,0,1,1.28,15S82.06,154.57,82.06,154.52Z"/><path class="cls-3" d="M78,190.18c.51-6,1.23-12.05,1-18.1-.19-6.32-.57-12.63-.44-18.94,0,0-.23-.13-.23-.08-.31,6-.2,12.08-.43,18.12-.12,3.11,0,6.23,0,9.33s-.45,6.34-.41,9.5C77.56,190.11,78,190.28,78,190.18Z"/><path class="cls-3" d="M84.48,192.39a6,6,0,0,0-.1-2.79c-.19-1.56-.4-3.11-.46-4.68-.11-2.62-.09-5.24-.13-7.86,0-.05-.24-.13-.24-.08-.14,2.56-.31,5.13-.4,7.69s-.33,5.13.58,7.51C83.76,192.27,84.41,192.58,84.48,192.39Z"/><path class="cls-3" d="M75,121.67c.35-3.06,1-6.14.37-9.21-.3-1.6-.13-3.23-.38-4.84a20.14,20.14,0,0,1-.56-5.33c0-.05-.25-.14-.25-.08a19.35,19.35,0,0,0,.14,4.3c0,1.62.15,3.22.11,4.83s.37,3.21.26,4.83a34.63,34.63,0,0,0,0,5.39C74.62,121.62,74.94,121.75,75,121.67Z"/><path class="cls-3" d="M72.69,171.3c.27-1.73.6-3.46.71-5.2a22.06,22.06,0,0,0-.59-4.76,40.2,40.2,0,0,1,0-11c.42-3.52.18-7.07.43-10.6.12-1.75,0-3.51.06-5.26.06-1.47-.4-3.15.14-4.59,0,0-.17-.11-.19-.06-.73,1.37-.44,3-.61,4.43-.2,1.72-.2,3.45-.31,5.17-.23,3.52-.18,7.05-.58,10.56a40.17,40.17,0,0,0,0,10.1c.27,1.93.84,3.85.93,5.8a47.78,47.78,0,0,1-.32,5.33C72.41,171.27,72.68,171.36,72.69,171.3Z"/><path class="cls-3" d="M73.87,196.11c-.06-1.71-.15-3.42-.26-5.13a20.72,20.72,0,0,1-.12-5.39c0-.05-.23-.14-.25-.09-.54,1.72-.26,3.52-.3,5.25a17.26,17.26,0,0,0,.24,5.17C73.21,196,73.88,196.26,73.87,196.11Z"/><path class="cls-7" d="M65.06,195.13c-.69-4.47.19-9-.13-13.45a33.38,33.38,0,0,1,0-6.4c0-3.23.26-6.45.41-9.67a141.72,141.72,0,0,0-.14-14.28c-.5-9.49-.77-19-1.2-28.47-.21-4.57-1.35-9.32-.8-13.88.32-2.75,1.25-6.11,4.83-7.73s7.55-1.58,11.3-2.51c3.94-1,8.74-3.4,9.79-6.5v-.71c-1.1,1.55-3.5,2.86-5.4,3.54A41.92,41.92,0,0,1,67.5,97.25,23.22,23.22,0,0,1,60.16,96a27.26,27.26,0,0,1-5.67-2.92,8.9,8.9,0,0,1-2.05-2.44c-.24,8.33-.64,89.34,0,95a33.71,33.71,0,0,0,2.08,9c3.2,5.22,9.54,6.51,15.29,6.38C66.43,199.89,65.46,197.73,65.06,195.13Z"/><path class="cls-8" d="M84.46,192.26c.52-.82.2-2,.2-2.85,0-1.86,0-3.73,0-5.59.17-3.85.7-7.72.68-11.57s.37-7.69.57-11.51c.21-4.15.34-8.29.8-12.43a134.48,134.48,0,0,0,.35-23.91c-.22-3.29-.63-6.55-.6-9.84.1,0,.18,0,.19-.07.29-1.59.22-3.2.37-4.81a18.41,18.41,0,0,0,.19-4.44c-.22-1.26.16-2.51-.1-3.77v0c0-.2.09-.41.15-.61,0,0-.08-.09-.15-.11.12-.91.58-1.8.07-2.68-.07-.14-.61-.49-.83-.31-.75.63-.7,1.8-.76,2.6-.16,2.06-.75,4.08-1.09,6.13a83.26,83.26,0,0,1-3.22,12.21c-1.34,4.13-1.57,8.63-1.84,12.86a129.32,129.32,0,0,0-.22,13.78c.09,1.92.33,3.83.57,5.75a65.78,65.78,0,0,0,.76,7c.93,3.94.76,7.92.76,11.92a54.34,54.34,0,0,0,1.06,11.22c.36,1.73-.12,3.57.1,5.32s.16,4,1.25,5.52C83.82,192.08,84.34,192.44,84.46,192.26Z"/><path class="cls-8" d="M69,151.28c.55-.82.41-2.19.5-3.1.15-1.53.07-3.06.33-4.58.56-3.33,0-6.82.08-10.17s1.2-6.69,1.79-10a17,17,0,0,0,.23-2.23c.32-1,.6-2,.82-3.07a10.05,10.05,0,0,0,0-5.44,24.54,24.54,0,0,1-1.62-6.87c0-.31-1.17-1.06-1.41-.6a12.09,12.09,0,0,0-.87,5.4,26.13,26.13,0,0,1-1.14,6,59.07,59.07,0,0,0-2,12.3A67.74,67.74,0,0,0,66.4,141c.29,2,.5,4,.85,6,.21,1.25.27,3,1.23,4.12C68.52,151.15,68.88,151.42,69,151.28Z"/><path class="cls-8" d="M71.15,180a34,34,0,0,1-.53-8.77,17.15,17.15,0,0,0-.93-5.49,6.74,6.74,0,0,0-.24,2.79,12.91,12.91,0,0,1-.72,3.71c-.7,2.29-.66,4.75-.9,7.07-.51,4.89,1.36,10,2,14.86,0,.12.54.46.72.35C71,189.63,72.07,184.76,71.15,180Z"/><path class="cls-9" d="M85.45,93.66c.06,0,.09-.06.09-.11,4.51-2.52,2-7.46-3-9.26A39.69,39.69,0,0,0,72.4,82.48a39.27,39.27,0,0,0-11.69,1c-.24.07.27.35.44.33A42.92,42.92,0,0,1,69,83.53c.44,0,.87.06,1.3.11a2,2,0,0,0-.83.37c-.17.14.33.38.48.4a25.92,25.92,0,0,1,5.19,1c1.36.43,6.15,1.75,6.24,3,.07,1.06-1.23,2-2,2.75-1.09,1.09-3.18.84-4.62,1.45-.15.07.16.21.23.23a17.38,17.38,0,0,0,6.39-.42,2.45,2.45,0,0,0-.43,1.14c0,.24.61.51.81.64C83,95.07,84.38,94.16,85.45,93.66Z"/><path class="cls-2" d="M193,90.16l7.79-.11s.08,11.22.08,25-3.16,63-2.93,75.42a7.41,7.41,0,0,1-5.09,8.5c-3.56,1.35-20.59,5.39-26.61-4.41a34.2,34.2,0,0,1-2.08-9c-.69-5.88-.23-92.69,0-95.63S193,90.16,193,90.16Z"/><path class="cls-3" d="M163.55,151.28c0-26.25.22-59.45.37-61.3a.89.89,0,0,1,.51-.65c3.59-2,27.62.53,28.64.64l7.74-.11a.39.39,0,0,1,.2,0,.19.19,0,0,1,.08.14c0,.11.08,11.38.08,25,0,6.55-.69,20.73-1.43,35.74-.8,16.29-1.62,33.14-1.5,39.68a7.59,7.59,0,0,1-5.23,8.67c-2,.75-10.9,3.16-18.4,1.32a13.33,13.33,0,0,1-8.59-5.83,33.66,33.66,0,0,1-2.1-9C163.62,183.07,163.55,165.54,163.55,151.28Zm37-61-7.51.1c-.3,0-24.86-2.67-28.27-.72a.5.5,0,0,0-.31.38c-.14,1.84-.37,35-.37,61.27,0,14.25.07,31.77.37,34.33a34,34,0,0,0,2.07,8.94,12.78,12.78,0,0,0,8.25,5.59c7.33,1.8,16-.56,18-1.29a7.24,7.24,0,0,0,4.95-8.29c0-.47,0-1,0-1.48,0-7.34.77-23.05,1.52-38.25.73-15,1.43-29.19,1.43-35.73C200.63,102.41,200.56,91.8,200.55,90.25Z"/><path class="cls-4" d="M194,96c4.52-1.17,8.08-3.82,6.53-7.36-2.31-5.26-10.32-6.3-17-6.54-6.56-.23-16.05.47-18.69,5.63-3.06,6,6.29,8.8,12.66,9.46A49,49,0,0,0,194,96Z"/><path class="cls-3" d="M163.9,90h0a5.07,5.07,0,0,1,.62-2.31c2.8-5.5,13.07-6,18.95-5.76,6.26.22,14.87,1.15,17.29,6.68a4.27,4.27,0,0,1,.38,1.71c0,2.54-2.65,4.74-7.07,5.88a49.82,49.82,0,0,1-16.68,1.2,30.41,30.41,0,0,1-8.8-2.17C165.52,93.81,163.9,92,163.9,90Zm36.7.32a3.94,3.94,0,0,0-.36-1.6c-2.32-5.29-10.7-6.19-16.79-6.41-5.73-.2-15.74.24-18.42,5.51a4.77,4.77,0,0,0-.59,2.18c0,4.47,8.2,6.52,13,7a49.28,49.28,0,0,0,16.41-1.19C198.08,94.7,200.6,92.64,200.6,90.27Z"/><path class="cls-5" d="M194,96a16,16,0,0,0,2.56-.88C189.07,97.17,177,96.68,170.84,94c-4.44-1.93-6-5.79-2.29-9.29A8,8,0,0,1,170,83.64a9.08,9.08,0,0,0-5.21,4.06c-3.06,6,6.29,8.8,12.66,9.46A49,49,0,0,0,194,96Z"/><path class="cls-6" d="M189.34,94.91c3.85-.54,8.1-2.13,8.63-5.15.31-1.77-.5-3-2.21-3.91-3.91-3-12.1-3.26-17.12-3-3.8.2-9.32.83-11.71,3.12a3.74,3.74,0,0,0,.42,5.88C172.5,96,182.36,95.91,189.34,94.91Zm-21.29-9c1.91-1.71,7.35-2.2,10.15-2.45,4.66-.41,11.87-.38,16.18,1.82a.15.15,0,0,0,.08.08c3.28,1.62,3.65,4.21,1.45,6.39s-5.57,2.68-9,3c-6.08.64-13.15.23-18.24-2.31C165.26,90.75,165.93,87.78,168.05,85.89Z"/><path class="cls-6" d="M187.57,92.94c2-.21,6.71-.61,7.51-2.35.62-1.33,1-2.11.38-2.86,0,0,0,0,0,0l-.12-.1a2.17,2.17,0,0,0-.35-.3c-3.73-3.08-11.11-3.4-16.34-3.06-2.89.19-7,.35-9.13,1.87-1.85,1.32-1.73,3.4.12,4.67C174.08,93.81,181.93,93.51,187.57,92.94Zm-15.5-1.27c-4.58-1.29-3.72-4.93,0-6a34.94,34.94,0,0,1,7.05-1c4.49-.34,10.89-.13,14.74,2-.11,0-.11.12.08.24,1.74,1,1.15,3-.41,4s-4.31,1.34-6.43,1.63A37.92,37.92,0,0,1,172.07,91.67Z"/><path class="cls-6" d="M185.32,90.72c2.8-.33,5.49-.75,7.63-2.11,1.12-.71.55-1.19-.42-1.56-.16-.06-.23,0-.23,0-3.36-1.9-8.55-1.64-12.56-1.65-2.48,0-11,.79-7.52,3.57,1.23,1,3.79,1.36,5.49,1.67A26.57,26.57,0,0,0,185.32,90.72Zm-5.23-.15c-1.28,0-9.26-1-7.59-3.15,1.21-1.55,6.76-1.49,8.84-1.49,3.66,0,8.42-.29,11.42,1.53.6.77-2.88,2-3.39,2.13-1.46.37-3,.58-4.49.81A28.36,28.36,0,0,1,180.09,90.57Z"/><path class="cls-6" d="M190.74,88c.06,0,0-.07,0-.11a1.33,1.33,0,0,0-.36-.35l.53.21c.13.06.15,0,0-.08-2.19-1.14-4.62-1.28-7.28-1.28-1.57,0-7.25-.07-7.87,1.31,0,.07.08.15.13.19,1.25.95,3.63.8,5.31.91C184.24,89,188.05,89.06,190.74,88ZM189,87.11l-.59,0c-.86-.07-2.21-.24-3.55-.31A18.14,18.14,0,0,1,189,87.11Zm-8.82,1.36c-1-.07-1.87-.19-2.8-.32,0-.21,0-.43-.07-.65a9.75,9.75,0,0,1,1.62-.25l2.87-.32a2.77,2.77,0,0,0-1,.43s0,.07,0,.09c.66,1,4.67.94,5.66.3.11-.08-.27-.3-.4-.23-1,.58-3.28.18-4.38.1.26-.5.9-.65,1.9-.43.87-.07,1.79,0,2.67,0,.3,0,4.89.29,3.15.83a17.71,17.71,0,0,1-5,.57C183,88.58,181.58,88.56,180.15,88.47Z"/><path class="cls-3" d="M175,188.68c.13-1.72-.3-3.42-.31-5.14s.07-3.59.11-5.39c.08-3.91.38-7.81.73-11.71a124.72,124.72,0,0,0-.18-22.78c-.34-3.63-.57-7.28-1-10.91-.21-1.73.15-3.4.11-5.13a44.2,44.2,0,0,1,0-5.52c.38-3.83.4-7.66.56-11.49.08-1.91.15-3.81.14-5.72a12.64,12.64,0,0,0-.2-1.93c-.15-1-.72-2.66.07-3.6,0,0-.18-.13-.21-.09-1.14,1.18-.46,2.69-.38,4a38.71,38.71,0,0,1-.33,5.89c-.34,3.82-.46,7.65-.85,11.47a84.27,84.27,0,0,0,1,21.08,100.7,100.7,0,0,1,.75,23.39c-.33,3.92-.7,7.84-.79,11.77a104,104,0,0,0,.46,11.7C174.61,188.62,175,188.76,175,188.68Z"/><path class="cls-3" d="M168.71,170.47c1.39-.5,1.63-2.15,1.91-2.95a16.12,16.12,0,0,0,.59-5.1c.06-2.82.65-5.57.47-8.4,0-.45.14-2.05-1-2.2-.91-.11-1.53,4.92-1.55,5.32,0,.09.41.22.41.14a13,13,0,0,1,.93-5.15c.2-.45.87.75.86.71a5.08,5.08,0,0,1,.12,1.1,19.59,19.59,0,0,1-.16,2.86c-.11,1-.53,1.92-.67,2.9-.18,1.17-.09,2.37-.17,3.55a18.41,18.41,0,0,1-.54,3.51,4.89,4.89,0,0,1-1.58,2.9,10.82,10.82,0,0,1,0-1.67,31.6,31.6,0,0,0-.48-3.34,39.31,39.31,0,0,1-.52-7.33,21.43,21.43,0,0,1,1.53-7c.73-1.92.55-4.3,2.32-6,1-.93,1.09.81,1.17,1.15a34.22,34.22,0,0,1,.74,4.34,21.63,21.63,0,0,1-.09,3c0,1.11.31,2.2.27,3.31-.07,2.36-.28,4.74-.42,7.1s-1.11,4.43-1.59,6.65c0,0,.26.16.29.09a40.23,40.23,0,0,0,2.63-14.45c-.06-2.17,0-4.38-.29-6.55a28.42,28.42,0,0,0-.89-3.87,2.24,2.24,0,0,0-1.08-1.45c-.1-.05-.37-.18-.53-.1a3.27,3.27,0,0,0-1.83,2.12c-.41,1.19-.69,2.4-1.08,3.59a36.66,36.66,0,0,0-2,7.82,35.38,35.38,0,0,0,.27,7.34,35.83,35.83,0,0,1,.47,4.48,1.48,1.48,0,0,0,.46,1.37A1.23,1.23,0,0,0,168.71,170.47Z"/><path class="cls-3" d="M169,134.73a83.1,83.1,0,0,0,1.79-9.42,90.36,90.36,0,0,0,.24-9.31c0-3,.48-5.88.2-8.85-.33-3.33-1.79-6.48-.64-9.8,0,0-.23-.15-.26-.09-1.34,2.93-.45,5.6-.09,8.58a30.89,30.89,0,0,1-.33,9.78c-.63,3,0,6.22-.31,9.29a93.51,93.51,0,0,0-.93,9.71C168.7,134.68,169,134.81,169,134.73Z"/><path class="cls-3" d="M166.31,146.9c.16-2.79-.15-5.57,0-8.35a29.91,29.91,0,0,1,1.12-7.59s-.18-.12-.2-.07a26.08,26.08,0,0,0-1.32,15.89C165.9,146.84,166.3,147,166.31,146.9Z"/><path class="cls-3" d="M171.65,193a65.73,65.73,0,0,0-.55-9.8,28.61,28.61,0,0,1-.42-5.45c.06-.78.08-1.56.16-2.34,0-.56-.19-1.31.14-1.83,0,0-.24-.16-.28-.11-.93.94-.61,2.49-.76,3.54a24.6,24.6,0,0,0,.12,4.85c.23,3.65.15,7.34,1,11C171.1,192.91,171.64,193.11,171.65,193Z"/><path class="cls-3" d="M193.78,154.52c0-9.49-.87-19,1.1-28.45,1-4.69.83-9.45.78-14.17,0-2.26,0-4.53,0-6.79,0-1.19-.15-2.35-.25-3.53-.06-.69.1-1.36-.49-2-.05-.07-.48-.19-.37,0,.65.82.1,2,.21,2.82a20.83,20.83,0,0,1-.12,3.44c-.11,2.27-.19,4.53-.23,6.8a70.5,70.5,0,0,1-1.24,14c-.91,4.17-1.66,8.63-.9,12.82a103.88,103.88,0,0,1,1.28,15S193.78,154.57,193.78,154.52Z"/><path class="cls-3" d="M189.77,190.18c.5-6,1.22-12.05,1-18.1-.19-6.32-.56-12.63-.44-18.94,0,0-.23-.13-.23-.08-.31,6-.2,12.08-.43,18.12-.12,3.11,0,6.23,0,9.33s-.45,6.34-.41,9.5C189.29,190.11,189.76,190.28,189.77,190.18Z"/><path class="cls-3" d="M196.2,192.39a6,6,0,0,0-.1-2.79c-.19-1.56-.4-3.11-.46-4.68-.11-2.62-.09-5.24-.13-7.86,0-.05-.24-.13-.24-.08-.14,2.56-.31,5.13-.39,7.69s-.34,5.13.57,7.51C195.49,192.27,196.13,192.58,196.2,192.39Z"/><path class="cls-3" d="M186.67,121.67c.35-3.06,1-6.14.37-9.21-.3-1.6-.13-3.23-.38-4.84a20.57,20.57,0,0,1-.56-5.33c0-.05-.24-.14-.25-.08a19.35,19.35,0,0,0,.14,4.3c0,1.62.15,3.22.11,4.83s.37,3.21.26,4.83a33.44,33.44,0,0,0,0,5.39C186.34,121.62,186.66,121.75,186.67,121.67Z"/><path class="cls-3" d="M184.41,171.3c.27-1.73.6-3.46.71-5.2a22.69,22.69,0,0,0-.58-4.76,40.59,40.59,0,0,1,0-11c.42-3.52.18-7.07.43-10.6.12-1.75,0-3.51.06-5.26.06-1.47-.4-3.15.14-4.59,0,0-.16-.11-.19-.06-.73,1.37-.44,3-.61,4.43-.2,1.72-.2,3.45-.31,5.17-.22,3.52-.18,7.05-.58,10.56a40.17,40.17,0,0,0,.05,10.1c.27,1.93.84,3.85.93,5.8a45.51,45.51,0,0,1-.32,5.33C184.14,171.27,184.4,171.36,184.41,171.3Z"/><path class="cls-3" d="M185.59,196.11c-.05-1.71-.15-3.42-.26-5.13a20.72,20.72,0,0,1-.12-5.39c0-.05-.23-.14-.25-.09-.54,1.72-.26,3.52-.3,5.25a17.59,17.59,0,0,0,.24,5.17C184.93,196,185.6,196.26,185.59,196.11Z"/><path class="cls-7" d="M176.78,195.13c-.69-4.47.19-9-.13-13.45a34.22,34.22,0,0,1,0-6.4c0-3.23.26-6.45.41-9.67a141.72,141.72,0,0,0-.14-14.28c-.5-9.49-.77-19-1.2-28.47-.21-4.57-1.35-9.32-.8-13.88.32-2.75,1.26-6.11,4.83-7.73s7.56-1.58,11.3-2.51c3.94-1,8.75-3.4,9.79-6.5v-.71c-1.1,1.55-3.5,2.86-5.4,3.54a41.92,41.92,0,0,1-16.21,2.18A23.22,23.22,0,0,1,171.88,96a27.51,27.51,0,0,1-5.67-2.92,8.9,8.9,0,0,1-2.05-2.44c-.23,8.33-.64,89.34,0,95a34.2,34.2,0,0,0,2.08,9c3.21,5.22,9.54,6.51,15.29,6.38C178.15,199.89,177.18,197.73,176.78,195.13Z"/><path class="cls-8" d="M196.18,192.26c.52-.82.2-2,.2-2.85,0-1.86,0-3.73.05-5.59.17-3.85.7-7.72.69-11.57s.36-7.69.56-11.51c.21-4.15.34-8.29.8-12.43a134.48,134.48,0,0,0,.35-23.91c-.22-3.29-.63-6.55-.6-9.84.1,0,.18,0,.19-.07.29-1.59.22-3.2.37-4.81a18.41,18.41,0,0,0,.19-4.44c-.22-1.26.16-2.51-.09-3.77a.09.09,0,0,1,0,0c0-.2.09-.41.15-.61,0,0-.08-.09-.15-.11.12-.91.58-1.8.07-2.68-.07-.14-.61-.49-.82-.31-.76.63-.7,1.8-.77,2.6-.16,2.06-.75,4.08-1.08,6.13a84.58,84.58,0,0,1-3.23,12.21c-1.33,4.13-1.57,8.63-1.84,12.86a129.32,129.32,0,0,0-.22,13.78c.09,1.92.33,3.83.57,5.75a65.78,65.78,0,0,0,.76,7c.93,3.94.76,7.92.76,11.92a54.34,54.34,0,0,0,1.06,11.22c.36,1.73-.12,3.57.1,5.32s.16,4,1.25,5.52C195.55,192.08,196.06,192.44,196.18,192.26Z"/><path class="cls-8" d="M180.69,151.28c.55-.82.42-2.19.5-3.1.15-1.53.07-3.06.33-4.58.56-3.33,0-6.82.08-10.17s1.21-6.69,1.79-10a19,19,0,0,0,.24-2.23c.31-1,.59-2,.81-3.07a10,10,0,0,0-.05-5.44,24.54,24.54,0,0,1-1.62-6.87c0-.31-1.17-1.06-1.4-.6a12.1,12.1,0,0,0-.88,5.4,26.13,26.13,0,0,1-1.14,6,59.73,59.73,0,0,0-2,12.3,67.74,67.74,0,0,0,.75,12.06c.29,2,.5,4,.85,6,.22,1.25.27,3,1.23,4.12C180.24,151.15,180.6,151.42,180.69,151.28Z"/><path class="cls-8" d="M182.88,180a34,34,0,0,1-.54-8.77,17.15,17.15,0,0,0-.93-5.49,6.91,6.91,0,0,0-.24,2.79,12.58,12.58,0,0,1-.72,3.71c-.7,2.29-.66,4.75-.9,7.07-.51,4.89,1.36,10,1.95,14.86,0,.12.54.46.72.35C182.69,189.63,183.79,184.76,182.88,180Z"/><path class="cls-9" d="M197.17,93.66a.15.15,0,0,0,.1-.11c4.5-2.52,2-7.46-3-9.26a39.69,39.69,0,0,0-10.14-1.81,39.27,39.27,0,0,0-11.69,1c-.24.07.27.35.45.33a42.77,42.77,0,0,1,7.84-.32c.44,0,.88.06,1.3.11a2,2,0,0,0-.83.37c-.16.14.33.38.48.4a26.16,26.16,0,0,1,5.2,1c1.35.43,6.14,1.75,6.23,3,.08,1.06-1.23,2-2,2.75-1.1,1.09-3.19.84-4.63,1.45-.15.07.16.21.23.23a17.38,17.38,0,0,0,6.39-.42,2.54,2.54,0,0,0-.42,1.14c0,.24.6.51.8.64C194.74,95.07,196.11,94.16,197.17,93.66Z"/><path class="cls-10" d="M28.43,159c-7.58,0-13.69-2.11-18.33-6.19-5.55-5.07-8.94-13.09-10-23.92a46.56,46.56,0,0,1,2-17,3.28,3.28,0,0,1,1.47-2.11h.11a4.81,4.81,0,0,1,0-3.09l.11-.43c1.7-5.48,3.28-10.69,3.51-16a18.72,18.72,0,0,0-.9-5.91c-.23-1-.57-2.11-.8-3.51a11.12,11.12,0,0,1,1.14-7.88A7.61,7.61,0,0,1,6.25,69v-.14c0-4.51-.45-9.43-.91-14.64-.9-10.41-1.92-21.1.57-30.53,5.54-20.12,24.44-21,33.6-21.39,2-.14,4.08-.14,6.23-.14,8.14,0,16.29.7,24.21,1.27C77.19,3.94,84.66,4.5,92,4.64a29.37,29.37,0,0,1,3.62.14A49.81,49.81,0,0,0,105.36,3a58,58,0,0,1,7-1.54A99.17,99.17,0,0,1,129.92,0c11.2,0,22.4,1.55,33.15,3l9.5,1.27,3.51.42c8.71,1.13,17.65,2.25,26.48,2.25a45.82,45.82,0,0,0,9.73-1.54,57.14,57.14,0,0,1,12.78-2c5.43,0,9.51,1.69,12.68,5.06A26.72,26.72,0,0,1,244.42,21a4.25,4.25,0,0,1,0,2.4,4.1,4.1,0,0,1,.79,2.11V26a84.28,84.28,0,0,1,.34,11c0,4.36-.11,9,.57,12.1a68,68,0,0,0,2.71,8.16c2.83,7.6,6.45,16.88,2.27,25.61A12.21,12.21,0,0,1,247.59,87a10.93,10.93,0,0,1,1.7,1.83c2.71,3.8,1.92,8.72,1.47,12l-.12.56a74.67,74.67,0,0,0,.12,15c.45,6.76.9,13.94-.46,20-1.58,7.45-5.54,12.24-11.88,14.07a31.37,31.37,0,0,1-8.25,1.12,68.24,68.24,0,0,1-13.24-1.69,65.26,65.26,0,0,0-12.45-1.54,10.55,10.55,0,0,0-2.15.14,30.36,30.36,0,0,1-3.62.14c-7.24,0-14.37-1.55-21.27-3.1A134,134,0,0,0,161,142.68a33.22,33.22,0,0,0-3.73-.14A100.18,100.18,0,0,0,139,144.65a118,118,0,0,1-12.11,1.69,68.4,68.4,0,0,1-7.8.42c-4.87,0-9.85-.42-14.6-.71-5.09-.42-10.3-.7-15.39-.7-10.29.14-19.91,3.52-30,7l-.34.14C50.6,154.92,39.06,159,28.43,159Z"/><path class="cls-11" d="M241.37,56c-1.36-6-.12-15.76-.91-22.09a1.3,1.3,0,0,0-.11-.56,34.27,34.27,0,0,1-6.45-1c-.23,0-.23-.42,0-.56,1.81-.7,3.85-1.55,5.77-2.25a20.19,20.19,0,0,0-5.66-10c-8.14-8.45-23.19-.71-32.58-.71-9.85,0-19.69-1.4-29.54-2.53-19.46-2.25-38.13-5.91-58-2.67-5.54.84-11.09,3.09-16.74,3.23-1.25,0-2.38-.14-3.63-.14-17-.14-33.94-2.95-51-2.25-11.2.85-25.69,2.53-30,18C9,45,13,60.93,12.93,73.87c0,.56-.23,1.69.22,2a4.69,4.69,0,0,0,3.06.56c1.35,0,2.71.14,4,.14a2.81,2.81,0,0,1-1.13.29c-1,.14-1.93,1-2.95,1a6.11,6.11,0,0,0-2.49,1c-1.58,1.26-2,3.09-1.58,5.34.68,3.52,1.81,5.91,1.7,9.71-.23,5.77-1.93,11.26-3.74,16.6,2.15.15,4.42.15,6.57.15.22,0,.22.42,0,.56a62.62,62.62,0,0,0-8,4.08A39,39,0,0,0,6.7,129.73c3.4,35.6,35.64,24.77,53.75,18.72,10.07-3.38,19.8-6.76,30.32-6.76,12.22-.14,24.44,2.11,36.66,1,11.31-1.13,22.4-4.22,33.72-3.38,13.35,1,26.47,6.33,39.82,5.35,11.54-.85,23.2,5.2,34.74,2,16.4-4.65,7.47-28.85,9.73-43.2.45-3,1.13-6.33-.68-8.72s-4.64-2.54-7.35-2.54a18.07,18.07,0,0,1,2.6-2.25c2-1.41,5-2.25,6.22-4.92C251.1,75.56,243.29,64.73,241.37,56Z"/><path class="cls-12" d="M246.46,85c4.64-9.29-3.17-20.26-5.21-29-1.35-6-.11-15.76-.9-22.09a1.2,1.2,0,0,0-.12-.56,34.17,34.17,0,0,1-6.44-1c-.23,0-.23-.42,0-.56,1.81-.7,3.84-1.55,5.77-2.25a20.27,20.27,0,0,0-5.66-10c-8.15-8.45-23.2-.71-32.59-.71-9.84,0-19.68-1.4-29.53-2.53-19.46-2.25-38.13-5.91-58-2.67-5.55.84-11.09,3.09-16.75,3.23-1.24,0-2.37-.14-3.62-.14-17-.14-33.94-2.95-51-2.25-11.08.85-25.57,2.53-29.87,18C9,45,13,60.93,12.93,73.87c0,.56-.23,1.69.22,2a4.69,4.69,0,0,0,3.06.56c1.35,0,2.71.14,4,.14a2.81,2.81,0,0,1-1.13.29c-1,.14-1.93,1-2.95,1a6.11,6.11,0,0,0-2.49,1c-1.58,1.26-2,3.09-1.58,5.34.68,3.52,1.81,5.91,1.7,9.71-.23,5.77-1.93,11.26-3.74,16.6,2.15.15,4.42.15,6.57.15.22,0,.22.42,0,.56a62.62,62.62,0,0,0-8,4.08A39,39,0,0,0,6.7,129.73c3.4,35.6,35.64,24.77,53.75,18.72,10.07-3.38,19.8-6.76,30.32-6.76,12.22-.14,24.44,2.11,36.66,1,11.31-1.13,22.4-4.22,33.72-3.38,13.35,1,26.47,6.33,39.82,5.35,11.54-.85,23.2,5.2,34.74,2,16.4-4.65,7.47-28.85,9.73-43.2.45-3,1.13-6.33-.68-8.72s-4.64-2.54-7.35-2.54a18.07,18.07,0,0,1,2.6-2.25C242.27,88.36,245.21,87.52,246.46,85ZM238.2,97.93c2.38,1.83,2.15,5.77,1.92,8.87a90,90,0,0,1-2.94,15.47c-.91,3.66-1.81,7.6-3.62,10.7a14,14,0,0,1-7.81,5.91c-7.69,2.53-16.29.56-23.87-1.41s-14.94-5.21-22.52-6.75c-13.91-3-27.83-1.41-41.75.7-6.79,1-13.69,2.25-20.48,2.81a86.25,86.25,0,0,1-10.52.57c-3.62,0-7.24-.42-10.86-.57a57.91,57.91,0,0,0-21.16,3.52C68,140,61.69,143,55.13,145.21s-13.8,4.22-20.82,3.09c-4.19-.7-8-2.53-11.88-4.5a31.87,31.87,0,0,1-5.77-3.51,10.19,10.19,0,0,1-3.51-3.52c-2.15-4.65-1-10.84.91-15.2a17.58,17.58,0,0,1,3.62-6,14.46,14.46,0,0,1,6.56-3.38c5.32-1.69,11-2.25,15.27-6.75-7.58,1.13-15.84,3-23.3-.14-.12,0-.12-.14-.12-.28,1.47-5.49.23-11.54,1-17.17.34-2.39.91-4.78,2.49-6.47a16.56,16.56,0,0,1,5.09-3.52C33.86,74,43.93,76.54,53,72.46,44,67.82,34.2,73,24.92,70.77c-2.15-.56-4.3-1.26-5.77-3.51a15.39,15.39,0,0,1-1.81-6.47c-.34-3.38-.68-6.62-1-10-.23-2-.45-3.94-.57-5.91a28.46,28.46,0,0,1-.11-7.6,17.57,17.57,0,0,1,6.79-11.4c7.47-5.49,16.75-6.47,25.23-6.05,6.11.28,12.11,1.69,18.22,3.09,3.5.71,7,1.41,10.52,1.83A66.51,66.51,0,0,0,87,24.62c7.24-.7,14.36-2.25,21.61-3.66,6.79-1.4,13.8-2.81,20.7-2.81,14.15.14,28.06,3.38,42,5.77,13,2.25,26.81-.56,39.49,4.78.11,0,.22.28,0,.43-3.17,2-6.68,2.53-10.07,2.95a103.86,103.86,0,0,1-11.43.28c-9.51,0-19,.42-28.4.71-14.71.42-29.42,1.54-44.13,3.23-13.35,1.69-26.7,3.52-40.16,4.08,9.39.85,78.37-.28,87.87,0,29.3.57-1,.14,28.44-1.26q10.86-.65,21.72-.85c4.42-.14,8.83-1.55,13.13-.84a7.85,7.85,0,0,1,4.64,2.25,10.59,10.59,0,0,1,2.15,6.47c.34,6.33-3.4,12.52-1.47,18.86.9,3.09,2.6,5.62,3.73,8.58A8.38,8.38,0,0,1,237,80.2c-2.6,6-8.14,7.46-13.23,7.74-2.72.14-5.55-.14-8.26,0l-11,.85c-7.35.56-14.82,1.12-22.18,1.82S167.37,91.88,160,92.44a177.09,177.09,0,0,1-19.46.71c-6-.14-12-.57-18-.28-5.43.28-11.09,1-16.18,3.37a89.6,89.6,0,0,0,19.35,2.11c3.4,0,6.68,0,10.07-.14s6.56,0,9.84-.14c14.26-.7,28.63-.84,43-1,6,0,12.11.28,18.1-.14l10.19-.85a95.69,95.69,0,0,1,12.67-.28C232.2,96,235.71,96.1,238.2,97.93Z"/></g></g></g></svg>