<svg xmlns="http://www.w3.org/2000/svg" viewBox="0 0 213 189"><defs><style>.cls-1{isolation:isolate;}.cls-2,.cls-3{fill:#b1b2ab;}.cls-3{mix-blend-mode:multiply;}.cls-4{fill:#333035;}.cls-5{fill:#444c51;}.cls-6{fill:#5a6266;}.cls-7{fill:#636b70;}.cls-8{fill:#3c4144;}.cls-9{fill:#6b797f;}.cls-10{fill:#56636b;}.cls-11{fill:#919da3;}.cls-12,.cls-15{fill:#545d63;}.cls-13,.cls-14{fill:#859aa0;}.cls-14{opacity:0.56;}.cls-14,.cls-15{mix-blend-mode:screen;}.cls-15{opacity:0.53;}.cls-16{fill:#546066;}.cls-17{fill:#7e929b;}.cls-18{fill:#6d7c84;}.cls-19{fill:#9ab0b5;}</style></defs><g class="cls-1"><g id="Layer_2" data-name="Layer 2"><g id="_Layer_" data-name="&lt;Layer&gt;"><path class="cls-2" d="M109.24,116.32s-119-2.63-108.6,33.77C5.76,168,1.27,170.88,63,184c37.69,8,86.68,3.95,112.86,3.95s52.34-53.18,26.56-67.57S109.24,116.32,109.24,116.32Z"/><path class="cls-3" d="M69.69,121.47s-51.57,14.2-60.31,21.41,16.68,18.27,16.68,18.27-8.72,2-2.44,8.25,41.73,4.19,41.73,4.19,9.27,11.69,20.94,11.69,19.3-4.14,19.3-4.14,16.08,5.83,23.55,2.74,8.51-3.7,8.51-3.7,33.62,5.71,41.27,1,3.48-19.78,3.48-19.78,21.88,5,21.88-5.41-32.12-27.66-32.12-27.66L146,118.9Z"/><path class="cls-4" d="M99,145.08a1.09,1.09,0,0,0,.36-.77c0-1-1.66-1.77-3.71-1.77-2.9,0-4.71,1.54-3.13,2.73-1.5.64-2.86,1.86-2.69,3.45a30.35,30.35,0,0,0-4.54-.58c-3.81-3.53-12.69-2.34-11.54,1.53-2.25.9-3.63,2.12-3.63,3.46,0,4.53,15,6.88,23.23,3.34,5.16,1.12,9.66-2.1,6-4.18a1.18,1.18,0,0,0,0-.56c1.73-.68,2.88-1.89,2.88-3.27S100.91,145.74,99,145.08Z"/><path class="cls-4" d="M150.81,139.81c-2.8-3.32-10.56-2-10.56,1.8a2.64,2.64,0,0,0,.39,1.35,11.53,11.53,0,0,0-4.94-1.51,1.65,1.65,0,0,0,.05-.38c0-1.62-2.94-2.93-6.56-2.93-6.73,0-9.06,4-3.23,5.49a1.89,1.89,0,0,0-.06,2.8c-4.51.68-3.93,2.42.87,2.89a1.45,1.45,0,0,0-.66,1.1,1,1,0,0,0,.12.47,8.89,8.89,0,0,0-4.09,1.85c-2.8-3.33-10.56-2-10.56,1.79a2.57,2.57,0,0,0,.38,1.35,11.77,11.77,0,0,0-4.94-1.51,1.15,1.15,0,0,0,.06-.37c0-1.62-2.94-2.93-6.56-2.93-6.73,0-9.07,4-3.24,5.49a1.9,1.9,0,0,0-.06,2.8c-4.51.67-3.93,2.42.87,2.89a1.43,1.43,0,0,0-.65,1.1c0,1.37,2.85,2.48,6.37,2.48,5.8,0,8.63-2.84,4.18-4.36,3.18-.53,5.45-1.89,5.45-3.48a1.81,1.81,0,0,0-.22-.84c2.57,1.7,6.85,1.37,8.77-.66,4.08,4,16.65,2.54,16.65-1.81a3,3,0,0,0-1.7-2.49c2.41-.94,2.78-2.61-.27-3.64,3.18-.53,5.44-1.89,5.44-3.49a1.73,1.73,0,0,0-.21-.83c2.56,1.69,6.85,1.36,8.77-.66,4.08,4,16.65,2.53,16.65-1.81S155.09,136,150.81,139.81Z"/><path class="cls-4" d="M60.1,139.47c-8.28,0-10.6,4.93-3,6.35.53,1.09,2.4,1.89,4.63,1.89,2.43,0,5.41-1.22,4.68-3.05a2.38,2.38,0,0,0,1.35-1.88C67.74,141,64.32,139.47,60.1,139.47Z"/><path class="cls-5" d="M71.82,125.11S63.12,118.9,57,118.9s-22.27,11-17.4,17.07S70.6,133.8,71.82,125.11Z"/><path class="cls-6" d="M71.62,126a46.78,46.78,0,0,0-20.16.36c-8.22,2-9.33,7.81-9.22,11.23C50.12,139.94,69.23,133.29,71.62,126Z"/><path class="cls-5" d="M60.17,121.69s.69-8.84,7.82-9.46.18-3.57,12.35-3.57,16.09,9.23,12.7,12.26-18.09,7.6-24.18,6.82A11.89,11.89,0,0,1,60.17,121.69Z"/><path class="cls-5" d="M94,110.52c-.83.29-4.48,6,1.18,8.38s21.44,3.1,23.09-1.4S116.15,102.76,94,110.52Z"/><path class="cls-5" d="M119.75,105.55c-1.66.6-6.85,12.57,0,14.12s17.11,3.73,19.55-.77S138.3,98.88,119.75,105.55Z"/><path class="cls-5" d="M153.56,109.74c-1.22,1.09-15.32,1.09-13.57,6.83s9.22,5.74,13.57,7.76,15.88-3,13.42-8.54S153.56,109.74,153.56,109.74Z"/><path class="cls-5" d="M167,115.79c-.95-.05-9.85,2.32-8.43,8.7s4.57,9.46,12.4,7.6S185.62,116.88,167,115.79Z"/><path class="cls-7" d="M19.52,141.33S16,152,27.37,156s19.71,9.07,24.7-4.94-6.74-24.28-16.25-21.29S19.52,141.33,19.52,141.33Z"/><path class="cls-8" d="M19.88,149.59c1.74,3.28,4.69,5,8.05,6.12C34.69,158,40.1,160.88,44.75,160c-4.7,1.9-12.14-1.48-17.15-3.36a13.49,13.49,0,0,1-6-3.92A9.28,9.28,0,0,1,19.88,149.59Z"/><path class="cls-9" d="M52.07,151.09c5-14-6.74-24.28-16.25-21.29a32.33,32.33,0,0,0-9.95,5.43c4.36.88,8.93,2.12,11.82,3.77,6,3.4,6.05,19.06,10.34,19.05A17.56,17.56,0,0,0,52.07,151.09Z"/><path class="cls-10" d="M163.56,151.62c1.3,9.64,10.1,7,13.68,7.16s18.44,1.8,19.84-8.52-6.75-21.63-15.17-21.95S160.92,132.22,163.56,151.62Z"/><path class="cls-8" d="M197.08,148.42c-1.4,10.33-16.26,8.66-19.84,8.52s-12.38,2.48-13.68-7.15a37.81,37.81,0,0,1-.35-4,35.24,35.24,0,0,0,.35,5.88c1.3,9.64,10.1,7,13.68,7.16s18.44,1.8,19.84-8.52a17.26,17.26,0,0,0,.13-3.29C197.19,147.45,197.14,147.94,197.08,148.42Z"/><path class="cls-11" d="M184,133.28a8.34,8.34,0,0,0,.31-4.6,10.64,10.64,0,0,0-2.36-.37c-8.43-.33-21,3.91-18.35,23.31a11.51,11.51,0,0,0,.23,1.27C171.87,146.76,182.11,138.27,184,133.28Z"/><path class="cls-12" d="M176.81,152.38s-5-15.8-31.59-7.53-18.3,22.88-7.7,31,40.06,2.8,41.8-6.5A27.82,27.82,0,0,0,176.81,152.38Z"/><path class="cls-8" d="M179.32,167.21c-1.74,9.3-31.21,14.61-41.8,6.49-5-3.83-9.5-9.12-10-14.49-.64,6.09,4.37,12.29,10,16.64,10.59,8.11,40.06,2.8,41.8-6.5a25.72,25.72,0,0,0,.39-5.64A25.67,25.67,0,0,1,179.32,167.21Z"/><path class="cls-13" d="M171.74,163.4a27.78,27.78,0,0,0-2.5-17A10.86,10.86,0,0,0,168,144c-4.79-1.88-12-2.47-22.75.87-22.41,7-20,18.45-12.4,26.74C145.07,177.14,170.15,172,171.74,163.4Z"/><path class="cls-14" d="M158.88,142.45a47.55,47.55,0,0,0-13.66,2.4c-13,4-17.66,9.59-17.79,15.17a30.15,30.15,0,0,0,18,3.72C155.57,162.51,166.79,148.44,158.88,142.45Z"/><path class="cls-12" d="M76.12,154.06S69,142.73,55.07,144.28,34.9,146,34.9,154.06s-2.26,11.33,2.09,13.5,30.26,6.36,35.3.62S76.12,154.06,76.12,154.06Z"/><path class="cls-8" d="M34.31,163c.12,2,.62,3.2,2.44,4.13,3.49,1.78,29.92,6.24,35.54,1C67.71,174,46.07,171,39,168.63,35.75,167.56,34.08,166.38,34.31,163Z"/><path class="cls-15" d="M55.07,144.28c-10.31,1.15-16.42,1.53-18.89,4.95,3.24,6.44,8.54,12.81,17.08,14.71,9.68,2.16,17.56-2,23-6.56a19.73,19.73,0,0,0-.1-3.32S69,142.73,55.07,144.28Z"/><path class="cls-14" d="M55.07,144.28a120,120,0,0,0-13.23,1.82,9.09,9.09,0,0,0,7.49,6.8c9.31,1.91,22.09,6.34,26.68,1C75.09,152.54,68,142.84,55.07,144.28Z"/><path class="cls-16" d="M77.59,156.31c-.58.12-11.34,4.34-9.28,12.35S78,179.17,87.6,180.22s17.15.27,18.66-6.83S106.15,150.66,77.59,156.31Z"/><path class="cls-8" d="M106.36,172.2c-1.52,7.1-9.09,7.88-18.66,6.83s-17.23-3.55-19.29-11.56a8.07,8.07,0,0,1-.27-2,7.82,7.82,0,0,0,.17,3.2c2.06,8,9.72,10.51,19.29,11.56s17.15.27,18.66-6.83a18.08,18.08,0,0,0,.37-2.86C106.56,171.12,106.47,171.69,106.36,172.2Z"/><path class="cls-17" d="M77.59,156.31c-.49.1-8.29,3.14-9.41,8.94,2.92,6,9.89,8.09,18.37,9,9.57,1,17.14.27,18.66-6.83a18.07,18.07,0,0,0,.38-3.56C103.17,157.84,95.94,152.68,77.59,156.31Z"/><path class="cls-13" d="M77.59,156.31a18.16,18.16,0,0,0-7.9,5.59C73.28,165,78.75,166.31,85,167c9.4,1,16.88.29,18.57-6.46C100,156.18,92.4,153.38,77.59,156.31Z"/><path class="cls-18" d="M118,166.17s-17.23.19-11.32,8.79,29.76,6.66,30.87.89S133.25,160.7,118,166.17Z"/><path class="cls-8" d="M137.58,173.17a8.68,8.68,0,0,1-.14,1.55c-1.1,5.77-25,7.71-30.87-.89a6.83,6.83,0,0,1-1.14-2.44,5.56,5.56,0,0,0,1.22,3.57c5.91,8.59,29.76,6.66,30.87.89A8.85,8.85,0,0,0,137.58,173.17Z"/><path class="cls-19" d="M137.51,172.75c-.95-5.39-6.8-11.14-19.54-6.58a34.41,34.41,0,0,0-6.54.8,9.81,9.81,0,0,0,.64,1.08C116.32,174.22,129.83,175,137.51,172.75Z"/></g></g></g></svg>