<svg xmlns="http://www.w3.org/2000/svg" viewBox="0 0 60 77"><defs><style>.cls-1{fill:#b62203;}.cls-2{fill:#f6e100;}.cls-3{fill:#fb9512;}</style></defs><g id="Layer_2" data-name="Layer 2"><g id="_Layer_" data-name="&lt;Layer&gt;"><circle class="cls-1" cx="30" cy="30" r="30"/><path class="cls-1" d="M31.25,77,15.07,54.72l31.61-.53Z"/><ellipse class="cls-2" cx="30.46" cy="37.73" rx="15.37" ry="14.34"/><path class="cls-3" d="M49.19,25.15s-1.79-.35-5.74,2.13C42.37,21.21,38.82,16.15,32.91,7c0,0-1.6,7.61-8,16.9-2.81-4.2-4.35-5.3-4.35-5.3C.26,38.19,17.05,52.07,27.6,52.07,41.14,52.07,53.05,45.79,49.19,25.15ZM28.29,50.82c-2.95,0-9.53-2-12.72-11.18a29,29,0,0,0,3,1.22c.07-3.17-.28-4.32,3.08-9.45a21,21,0,0,0,4,4.5,84.09,84.09,0,0,0,7.27-12c4.14,6.11,5.33,8,6.08,12,2.24.76,5.26-1.12,5.26-1.12-.19,4.08-1.84,5.34-3,7.84a30.6,30.6,0,0,0,3-.61C38.93,49.31,33.56,50.82,28.29,50.82Z"/></g></g></svg>