<?xml version="1.0" encoding="utf-8"?>
<svg viewBox="0 0 500 500" xmlns="http://www.w3.org/2000/svg">
  <defs>
    <clipPath id="clip-path">
      <path class="cls-1" d="M279.59,124.21a13.52,13.52,0,0,0,1.73,4.34l-.71-.19a39.83,39.83,0,0,1-6.16-2.4,11.08,11.08,0,0,0,1,3.44c.17.3.3.56.45.82l0,.13a10.73,10.73,0,0,0,1.12.42,34.07,34.07,0,0,1-1.41-3.3.17.17,0,0,1,.3-.14c.67,1.18,2.29,1.59,3.52,1.88a15.76,15.76,0,0,0,5.06.5,10.72,10.72,0,0,1-2.21-1.52,7.63,7.63,0,0,1-1.63-2.48c-.06-.15.12-.25.24-.19,2.11,1.07,4.16,2.29,6.57,2.42,1.51.07,3.45.14,4.75-.79a11.86,11.86,0,0,1-4.69-.19l.08.09c-.88-.14-6.71-2.23-7.9-3.15a1.42,1.42,0,0,0-.08.31" style="clip-rule: evenodd; fill: none;"/>
    </clipPath>
    <clipPath id="clip-path-3">
      <rect class="cls-2" x="78.09" y="44.23" width="203" height="193" style="fill: none;"/>
    </clipPath>
  </defs>
  <g id="Layer_2" data-name="Layer 2" transform="matrix(2.44028, 0, -0.025292, 2.650869, -185.602234, -130.803757)" style="">
    <g id="_Layer_" data-name="&lt;Layer&gt;">
      <path class="cls-8" d="M299.36,176.62h-.08l-.2.06a7.11,7.11,0,0,1-.9.26l-.38.23a8.21,8.21,0,0,0,1.53-.4h0a.16.16,0,0,1,.15.16c0,.07,0,.13,0,.2l.17-.1v-.1l-.09-.23a.32.32,0,0,0-.23-.09" style="fill: rgb(71, 33, 7);"/>
      <path class="cls-8" d="M299.51,177.14h0c0,.1,0,.2,0,.3h0c0-.1,0-.2.05-.3" style="fill: rgb(71, 33, 7);"/>
      <path class="cls-10" d="M310.39,134.07h0v0" style="fill: rgb(50, 21, 4);"/>
      <path class="cls-20" d="M310.52,133.34h0m0,0h0m0,0h0" style="fill: rgb(24, 68, 24);"/>
      <g class="cls-23" style="clip-path: url(#clip-path);"/>
      <path class="cls-8" d="M42.06,181.18H42l-.2.06a7.25,7.25,0,0,1-.91.26l-.37.23a8.11,8.11,0,0,0,1.52-.4h0a.16.16,0,0,1,.16.15,1.36,1.36,0,0,1,0,.21,1,1,0,0,0,.17-.1.31.31,0,0,0,0-.1l-.09-.23a.33.33,0,0,0-.23-.09" style="fill: rgb(71, 33, 7);"/>
      <path class="cls-8" d="M42.2,181.7h0c0,.1,0,.2-.05.3h0c0-.1,0-.2.05-.3" style="fill: rgb(71, 33, 7);"/>
      <path class="cls-10" d="M53.09,138.63h0v0" style="fill: rgb(50, 21, 4);"/>
      <g class="cls-26" style="clip-path: url(#clip-path-3);">
        <path class="cls-27" d="M182.2,167.56S68.79,165,78.71,199.92c4.87,17.14.59,19.94,59.42,32.53,35.92,7.7,82.6,3.79,107.56,3.79s49.88-51,25.3-64.78S182.2,167.56,182.2,167.56Z" style="fill: rgb(177, 178, 171);"/>
        <path class="cls-27" d="M144.51,172.49S95.36,186.09,87,193s15.89,17.51,15.89,17.51-8.31,1.92-2.32,7.92,39.77,4,39.77,4,8.83,11.19,20,11.19a41.48,41.48,0,0,0,18.39-4s15.33,5.59,22.44,2.63,8.11-3.55,8.11-3.55,32,5.47,39.33.92,3.31-19,3.31-19,20.87,4.81,20.87-5.16S242.16,179,242.16,179l-24.92-9Z" style="fill: rgb(177, 178, 171);"/>
        <path class="cls-28" d="M225.28,186a4.84,4.84,0,0,0,1.63-3.4c0-4.93-9.69-8.93-21.64-8.93A44.42,44.42,0,0,0,192,175.5a30.09,30.09,0,0,0-8-1c-6,0-10.67.67-12.34,2.71-1.2-.22-2.88.46-4.25.46-5.64,0-10.24,2.07-10.47,4.68-6.06.84-10.56,3.93-10.56,7.61a6,6,0,0,0,2.67,4.63,2.18,2.18,0,0,0-1.26,2.63c-2.14.87-3.46,2-3.46,3.32,0,4.34,14.27,6.6,22.14,3.2a9.31,9.31,0,0,0,3.68.07h.06a1.89,1.89,0,0,0-.45.6,1.82,1.82,0,0,0,0,1.47,1.69,1.69,0,0,0,.43.62c-4.31.65-3.75,2.32.83,2.77a1.54,1.54,0,0,0-.43.45,1.45,1.45,0,0,0-.19.6c0,1.32,2.72,2.38,6.07,2.38,5.54,0,8.23-2.72,4-4.17,3-.51,5.19-1.81,5.19-3.34a1.9,1.9,0,0,0-.2-.81c2.44,1.63,6.52,1.31,8.35-.63,3.89,3.83,15.87,2.43,15.87-1.73a2.93,2.93,0,0,0-1.62-2.39c2.29-.91,2.64-2.5-.26-3.5,3-.51,5.19-1.81,5.19-3.34a1.87,1.87,0,0,0-.21-.8c2.45,1.62,6.53,1.31,8.36-.63,3.89,3.82,15.87,2.43,15.87-1.74C236.89,186.53,230.28,185,225.28,186Z" style="fill: rgb(51, 48, 53);"/>
        <path class="cls-28" d="M134.71,187.45c-7.89,0-10.1,4.73-2.88,6.09.51,1,2.29,1.81,4.41,1.81,2.32,0,5.16-1.17,4.46-2.92a2.29,2.29,0,0,0,1.29-1.8C142,188.87,138.73,187.45,134.71,187.45Z" style="fill: rgb(51, 48, 53);"/>
        <path class="cls-29" d="M135.43,172.7s.67-8.49,7.46-9.08.17-3.43,11.75-3.43S170,169,166.74,172s-17.22,7.29-23,6.56A11.35,11.35,0,0,1,135.43,172.7Z" style="fill: rgb(68, 76, 81);"/>
        <path class="cls-30" d="M154.66,160.19c-11.6,0-5,2.83-11.75,3.43-4.31.38-6.16,3.93-6.93,6.48a10.64,10.64,0,0,0,5.47,2.41c5.81.74,19.81-3.65,23.05-6.55a3.34,3.34,0,0,0,1-1.86C163.38,161.92,159.79,160.19,154.66,160.19Z" style="fill: rgb(133, 154, 160);"/>
        <path class="cls-29" d="M146.54,176S138.25,170,132.45,170s-21.21,10.55-16.59,16.35S145.38,184.3,146.54,176Z" style="fill: rgb(68, 76, 81);"/>
        <path class="cls-31" d="M146.35,176.8a44.27,44.27,0,0,0-19.21.34c-7.84,2-8.89,7.49-8.79,10.77C125.86,190.19,144.07,183.81,146.35,176.8Z" style="fill: rgb(90, 98, 102);"/>
        <path class="cls-29" d="M166,163.64c-.8.32-4.27,6.54,1.12,9.06s20.44,3.36,22-1.51S187.14,155.26,166,163.64Z" style="fill: rgb(68, 76, 81);"/>
        <path class="cls-30" d="M167.92,165.64c4.73,2.2,16.88,3.12,20.86,0-1.92-4.32-8.15-7.82-22.75-2a1,1,0,0,0-.29.24A5.35,5.35,0,0,0,167.92,165.64Z" style="fill: rgb(133, 154, 160);"/>
        <path class="cls-29" d="M192.23,159.26c-1.59.57-6.53,12.05,0,13.54s16.3,3.57,18.63-.75S209.9,152.86,192.23,159.26Z" style="fill: rgb(68, 76, 81);"/>
        <g class="cls-32" style="opacity: 0.56;">
          <path class="cls-30" d="M192.23,159.26c-.84.3-2.63,3.69-3.15,7a3.91,3.91,0,0,0,2.47,1.6c6.52,1.49,16.3,3.57,18.62-.74a6.11,6.11,0,0,0,.62-2.33C209,159.81,203.56,155.15,192.23,159.26Z" style="fill: rgb(133, 154, 160);"/>
        </g>
        <path class="cls-29" d="M224.44,161.25c-1.16,1-14.59,1-12.91,6.53s8.79,5.51,12.94,7.45,15.13-2.83,12.78-8.19S224.44,161.25,224.44,161.25Z" style="fill: rgb(68, 76, 81);"/>
        <path class="cls-29" d="M242.28,168.45c-1.05-.06-10.86,2.41-9.29,9s5,9.82,13.67,7.88S262.84,169.58,242.28,168.45Z" style="fill: rgb(68, 76, 81);"/>
        <path class="cls-33" d="M96.7,191.53s-3.39,10.19,7.48,14.09,18.79,8.7,23.54-4.74-6.42-23.28-15.49-20.41S96.7,191.53,96.7,191.53Z" style="fill: rgb(99, 107, 112);"/>
        <path class="cls-34" d="M97,199.45c1.68,3.14,4.47,4.81,7.67,5.86,6.45,2.23,11.6,5,16,4.1-4.48,1.83-11.56-1.41-16.34-3.21a12.74,12.74,0,0,1-5.72-3.77A9,9,0,0,1,97,199.45Z" style="fill: rgb(60, 65, 68);"/>
        <path class="cls-35" d="M127.72,200.88c4.75-13.43-6.42-23.28-15.49-20.41a30.56,30.56,0,0,0-9.48,5.19c4.15.85,8.51,2,11.27,3.62,5.68,3.27,5.76,18.27,9.85,18.27A16.73,16.73,0,0,0,127.72,200.88Z" style="fill: rgb(107, 121, 127);"/>
        <path class="cls-36" d="M234,201.39c1.26,9.24,9.65,6.74,13,6.86s17.57,1.74,18.91-8.17-6.43-20.73-14.46-21.05S231.46,182.79,234,201.39Z" style="fill: rgb(86, 99, 107);"/>
        <path class="cls-34" d="M265.92,198.33c-1.34,9.9-15.49,8.3-18.91,8.17s-11.79,2.37-13-6.87a36,36,0,0,1-.33-3.88,35.51,35.51,0,0,0,.33,5.64c1.26,9.24,9.65,6.74,13,6.86s17.57,1.74,18.91-8.17a17.45,17.45,0,0,0,.13-3.15C266,197.4,266,197.87,265.92,198.33Z" style="fill: rgb(60, 65, 68);"/>
        <path class="cls-37" d="M253.41,183.8a8,8,0,0,0,.3-4.41,10.67,10.67,0,0,0-2.25-.36c-8-.31-20,3.76-17.49,22.36.06.42.13.84.22,1.22C241.9,196.73,251.66,188.61,253.41,183.8Z" style="fill: rgb(145, 157, 163);"/>
        <path class="cls-38" d="M246.6,202.11s-4.77-15.15-30.1-7.21-17.45,21.93-7.35,29.72,38.19,2.69,39.84-6.23A26.87,26.87,0,0,0,246.6,202.11Z" style="fill: rgb(84, 93, 99);"/>
        <path class="cls-34" d="M249,216.33c-1.65,8.92-29.74,14-39.84,6.23-4.77-3.68-9-8.74-9.56-13.89-.61,5.84,4.16,11.79,9.56,16,10.1,7.78,38.19,2.69,39.84-6.23a23.93,23.93,0,0,0,.38-5.41A23.39,23.39,0,0,1,249,216.33Z" style="fill: rgb(60, 65, 68);"/>
        <path class="cls-30" d="M241.77,212.69a26.8,26.8,0,0,0-2.38-16.28,10.18,10.18,0,0,0-1.21-2.34c-4.56-1.81-11.45-2.38-21.68.84-21.36,6.69-19.1,17.68-11.82,25.65C216.35,225.86,240.25,220.89,241.77,212.69Z" style="fill: rgb(133, 154, 160);"/>
        <g class="cls-32" style="opacity: 0.56;">
          <path class="cls-30" d="M229.52,192.6a45,45,0,0,0-13,2.3c-12.38,3.87-16.83,9.2-17,14.54A28.67,28.67,0,0,0,216.68,213C226.36,211.83,237.05,198.34,229.52,192.6Z" style="fill: rgb(133, 154, 160);"/>
        </g>
        <path class="cls-38" d="M150.64,203.73s-6.8-10.86-20.06-9.38-19.22,1.64-19.22,9.38-2.16,10.86,2,12.94,28.84,6.1,33.65.6S150.64,203.73,150.64,203.73Z" style="fill: rgb(84, 93, 99);"/>
        <path class="cls-34" d="M110.8,212.32c.11,1.93.59,3.07,2.32,4,3.33,1.71,28.51,6,33.87,1-4.37,5.56-25,2.69-31.75.42C112.17,216.67,110.57,215.55,110.8,212.32Z" style="fill: rgb(60, 65, 68);"/>
        <g class="cls-39" style="opacity: 0.53;">
          <path class="cls-38" d="M130.58,194.35c-9.83,1.11-15.65,1.47-18,4.75,3.1,6.17,8.14,12.27,16.28,14.1,9.23,2.07,16.74-1.9,21.89-6.29a18.76,18.76,0,0,0-.1-3.18S143.84,192.87,130.58,194.35Z" style="fill: rgb(84, 93, 99);"/>
        </g>
        <g class="cls-32" style="opacity: 0.56;">
          <path class="cls-30" d="M130.58,194.35A111.9,111.9,0,0,0,118,196.1a8.7,8.7,0,0,0,7.13,6.52c8.87,1.83,21.05,6.07,25.43,1C149.66,202.27,142.92,193,130.58,194.35Z" style="fill: rgb(133, 154, 160);"/>
        </g>
        <path class="cls-40" d="M152,205.89c-.55.11-10.81,4.15-8.84,11.84s9.26,10.08,18.38,11.09,16.34.25,17.79-6.55S179.26,200.47,152,205.89Z" style="fill: rgb(84, 96, 102);"/>
        <path class="cls-34" d="M179.46,221.12c-1.45,6.81-8.67,7.56-17.79,6.55s-16.42-3.4-18.38-11.08a7.86,7.86,0,0,1-.25-1.93,7.4,7.4,0,0,0,.16,3.07c2,7.69,9.26,10.08,18.38,11.09s16.34.25,17.79-6.55a17.08,17.08,0,0,0,.34-2.75A14.38,14.38,0,0,1,179.46,221.12Z" style="fill: rgb(60, 65, 68);"/>
        <path class="cls-41" d="M152,205.89c-.46.09-7.9,3-9,8.57,2.79,5.78,9.43,7.75,17.51,8.65,9.12,1,16.36.25,17.78-6.55a17.05,17.05,0,0,0,.37-3.42C176.42,207.35,169.53,202.41,152,205.89Z" style="fill: rgb(126, 146, 155);"/>
        <path class="cls-30" d="M152,205.89a17.2,17.2,0,0,0-7.53,5.35c3.42,3,8.63,4.23,14.63,4.9,9,1,16.08.28,17.7-6.2C173.37,205.76,166.16,203.08,152,205.89Z" style="fill: rgb(133, 154, 160);"/>
        <path class="cls-42" d="M190.55,215.34s-16.43.19-10.79,8.42,28.36,6.38,29.41.84S205.09,210.08,190.55,215.34Z" style="fill: rgb(109, 124, 132);"/>
        <path class="cls-34" d="M209.21,222.05a7.44,7.44,0,0,1-.13,1.49c-1.05,5.53-23.79,7.39-29.42-.84a6.77,6.77,0,0,1-1.09-2.34,5.34,5.34,0,0,0,1.17,3.42c5.63,8.23,28.36,6.38,29.41.84A7.92,7.92,0,0,0,209.21,222.05Z" style="fill: rgb(60, 65, 68);"/>
        <path class="cls-43" d="M209.15,221.65c-.91-5.17-6.49-10.68-18.62-6.31a32,32,0,0,0-6.24.77,9.07,9.07,0,0,0,.62,1C189,223.06,201.83,223.77,209.15,221.65Z" style="fill: rgb(154, 176, 181);"/>
        <path class="cls-44" d="M185.62,179c-1.83-.67-14-1.75-14-1.75l-11,8.28,2.63,3.11,16.14,1.69Z" style="fill: rgb(28, 26, 33);"/>
        <path class="cls-45" d="M175.86,186.19l5.88-8.62h1.55a12.26,12.26,0,0,1,7.54,2.62l5.64,4.42-2.21,4.06-5.15,1.72-10.68-1.23Z" style="fill: rgb(19, 18, 20);"/>
        <path class="cls-46" d="M181,186.19l2.1-2.59,3.68,3.69,1.83-3.31,3.43,2.59s-1.1-5.42,0-4.31,4.42,2.34,4.42,2.34L190.62,180a11.42,11.42,0,0,0-7.05-2.44h-1.83l-5.88,8.61,5.28-3.19Z" style="fill: rgb(125, 127, 129);"/>
        <path class="cls-47" d="M191.19,180.45l-.55-.42a11.54,11.54,0,0,0-7.09-2.44h-1.81l-3.3,4.81c.53-.15,1.07-.49,1.57-.68l-.29,1,1.74-.52c.48.89.17,2.1,1,1.23s1.57-3.42,2.4-2.59a9.54,9.54,0,0,1,1.07,1.91l.68,1.94v-1.85a1.91,1.91,0,0,0,.28-.93l1,.19-1-.67c0-1.09-.11-2.26.33-1.83a6.75,6.75,0,0,0,2.34,1.91l.84,2.47-.38-2.42C190.5,181.52,190.89,181.22,191.19,180.45Z" style="fill: rgb(232, 20, 31);"/>
        <path class="cls-45" d="M160.41,182l-11,4.33v4.8L164,195.4l9.55-2.31,1.32-4.4S164.11,180.53,160.41,182Z" style="fill: rgb(19, 18, 20);"/>
        <path class="cls-48" d="M167.52,192.05c-4.35-1.48-9.54-.43-13.7,1.52l.38.69c3.36-1.17,8.66-2.55,11.88-1.41a18.53,18.53,0,0,0-5,6.19l.8.23c4.08-8,17.65-10.91,27.61-11.17l0-2.17C182.48,186.43,173.46,188.36,167.52,192.05Z" style="fill: rgb(45, 24, 5);"/>
        <path class="cls-49" d="M173.43,196.42c4,2.3,9.28,2.28,13.74,1.15l-.25-.75c-3.52.51-9,.85-11.93-.9a18.65,18.65,0,0,0,6.14-5.1l-.74-.39c-5.55,7.11-19.42,7.29-29.24,5.63l-.45,2.11C157.67,199.05,166.9,198.89,173.43,196.42Z" style="fill: rgb(17, 16, 16);"/>
        <path class="cls-50" d="M183.54,187.45a11.19,11.19,0,0,1,3.88.38,5.55,5.55,0,0,0,2,.08l0-2a65.74,65.74,0,0,0-7.14.92,1.28,1.28,0,0,0,.51.47A1.22,1.22,0,0,0,183.54,187.45Z" style="fill: rgb(2, 2, 2);"/>
        <path class="cls-50" d="M164,191.37a21.59,21.59,0,0,0-10.13,2.2l.38.69c.76-.26,1.61-.54,2.52-.79a12,12,0,0,1,3.1-1C161.69,192.25,163.56,191.85,164,191.37Z" style="fill: rgb(2, 2, 2);"/>
        <path class="cls-50" d="M163.48,195.37A15,15,0,0,0,161,199l.8.23a11.57,11.57,0,0,1,1.13-1.8A4.39,4.39,0,0,0,163.48,195.37Z" style="fill: rgb(2, 2, 2);"/>
        <path class="cls-50" d="M176.09,189.52c.32-.33.19-.77-.23-1.09a39.79,39.79,0,0,0-6.42,2.52h.44C170.94,191,175.28,190.33,176.09,189.52Z" style="fill: rgb(2, 2, 2);"/>
        <path class="cls-45" d="M148.59,195.15c-.74-1.85,1.49-4.48,5-5.89s6.91-1,7.65.8-1.49,4.49-5,5.9S149.32,197,148.59,195.15Z" style="fill: rgb(19, 18, 20);"/>
        <path class="cls-51" d="M160.14,191c-.42.84-3.88.58-3.85,1.34s3.26-.16,2.93.22-3.48.84-2.79,1.5c.51.48,1.8.32,2.31.57,2-1.4,3-3.18,2.48-4.53a2.29,2.29,0,0,0-1.18-1.19,4.6,4.6,0,0,1-.55.76C158.39,190.81,160.56,190.15,160.14,191Z" style="fill: rgb(101, 98, 104);"/>
        <path class="cls-47" d="M160.76,190.56c-.26.48-1,.9-1,1.06s.72.43.47.68-1.93.79-1.79,1.22.75,0,.84.68c1.62-1.33,2.43-2.9,1.94-4.12a1.94,1.94,0,0,0-.6-.81,5.58,5.58,0,0,0-.69.51C159.71,190,161,190.08,160.76,190.56Z" style="fill: rgb(232, 20, 31);"/>
        <path class="cls-47" d="M158.8,191.92s-.62-.11-.77.05S158.66,192.08,158.8,191.92Z" style="fill: rgb(232, 20, 31);"/>
        <path class="cls-47" d="M158.55,193.89s-.47-.08-.58,0S158.41,194.05,158.55,193.89Z" style="fill: rgb(232, 20, 31);"/>
        <path class="cls-45" d="M212,186.4c-.58,1.9-4,2.53-7.55,1.44s-6-3.56-5.43-5.48,4-2.52,7.55-1.43S212.57,184.5,212,186.4Z" style="fill: rgb(19, 18, 20);"/>
        <path class="cls-51" d="M200.39,182.35c.84-.37,3.38,2,3.83,1.39s-2.63-1.94-2.13-2,3.24,1.53,3.11.59c-.1-.69-1.19-1.38-1.43-1.9-2.41-.15-4.34.57-4.77,2a2.23,2.23,0,0,0,.17,1.66,4,4,0,0,1,.91-.23C201.65,183.59,199.54,182.72,200.39,182.35Z" style="fill: rgb(101, 98, 104);"/>
        <path class="cls-47" d="M199.66,182.3c.5-.22,1.33-.07,1.43-.2s-.29-.78.06-.84,2,.62,2.15.2-.56-.49-.21-1.05c-2.1,0-3.7.72-4.09,2a2,2,0,0,0-.05,1,5.07,5.07,0,0,0,.87,0C200.1,183.39,199.16,182.51,199.66,182.3Z" style="fill: rgb(232, 20, 31);"/>
        <path class="cls-47" d="M202,182.47s.42.47.63.42S202.25,182.44,202,182.47Z" style="fill: rgb(232, 20, 31);"/>
        <path class="cls-47" d="M203.45,181.09s.31.37.48.34S203.66,181.06,203.45,181.09Z" style="fill: rgb(232, 20, 31);"/>
        <path class="cls-52" d="M204,186.18l-6.16-2c-2.4-.76-3.88.36-8.56,1.45a5.82,5.82,0,0,0-3.24,2.46,5.45,5.45,0,0,0,4.73,8.59h11.6A5.4,5.4,0,0,0,204,186.2Z" style="fill: rgb(35, 33, 40);"/>
        <path class="cls-46" d="M203.31,189.62l-4.12-2.48-1.73.25-.9-1.9-.33,2.06h-6.09l-1.32,3.72-2,2.4h3.79l2.22,1.73,1.32-2.23,5.43-.16,2.56,1.73Z" style="fill: rgb(125, 127, 129);"/>
        <path class="cls-47" d="M190.75,188.42l.74,1.81-1.23,2.24s2.52-1.8,2.31-2Z" style="fill: rgb(232, 20, 31);"/>
        <path class="cls-47" d="M192.85,189l2.23.84,1.72-.42,1.73,1,3.26-.22-3-.49s-1.68-1.29-1.81-1.14a13.06,13.06,0,0,1-1.93.6Z" style="fill: rgb(232, 20, 31);"/>
        <path class="cls-47" d="M192.85,191.64,196,191l.5.33L198,191l3.58,1.82-3.7-1.24-2.06.74-.37-.41-2.83.37v2L191.42,193Z" style="fill: rgb(232, 20, 31);"/>
        <path class="cls-53" d="M 215.88 62.28 C 209.69 54.07 196.853 51.211 186.713 49.921 C 194.083 54.061 202.46 53.91 208.05 60.55 C 216.86 71.1 213.21 78.55 207.77 85.02 C 195.52 99.75 174.02 98.44 172.47 116.8 C 171.69 122.48 173.91 143.8 182.35 164.12 C 178.6 151.18 172.35 130.79 175.18 119.47 C 178.41 106.62 203.42 106.74 217.06 87.13 C 217.23 86.65 225.8 75.73 215.88 62.28 Z" style="fill: rgb(133, 154, 160); isolation: isolate; opacity: 0.36;"/>
        <path class="cls-53" d="M172.06,126.59c-3.68-4.87-12.86-9.94-18.89-10.7,4.37,2.46,10.91,5.75,14.27,9.68,5.22,6.26,3.06,10.69-.17,14.51-7.26,8.73-20,7.95-20.92,18.83-.46,3.37.84,16,5.88,28.05-2.23-7.67-5.95-19.75-4.25-26.46,1.91-7.62,16.73-7.55,24.81-19.17C172.85,141.05,177.93,134.56,172.06,126.59Z" style="fill: rgb(133, 154, 160); isolation: isolate; opacity: 0.36;"/>
        <path class="cls-53" d="M226.3,117.21c-3.67-4.87-12.85-9.93-18.88-10.7,4.36,2.46,10.91,5.75,14.27,9.68,5.21,6.26,3.05,10.7-.17,14.51-7.26,8.73-20,8-20.92,18.84-.47,3.36.84,16,5.85,28-2.22-7.67-5.94-19.76-4.25-26.46,1.92-7.62,16.74-7.55,24.82-19.17C227.1,131.66,232.17,125.18,226.3,117.21Z" style="fill: rgb(133, 154, 160); isolation: isolate; opacity: 0.36;"/>
      </g>
    </g>
  </g>
</svg>